<?xml version='1.0' encoding='utf-8'?>
<svg xmlns="http://www.w3.org/2000/svg" version="1.1" id="Layer_1" x="0px" y="0px" viewBox="0 0 2835.3 2304" style="enable-background:new 0 0 2835.3 2304;"> <style type="text/css"> .st0{fill:#C1AE9F;} .st1{fill:#EFEFEF;} .st2{fill:#DBC7B2;} .st3{fill:#B28DB1;} .st4{fill:#D9B3D5;} .st5{fill:#B34D52;} .st6{fill:#EE7877;} .st7{fill:#236892;} .st8{fill:#5A9CD5;} .st9{fill:#C4B665;} .st10{fill:#F2E05E;} .st11{fill:#BA703D;} .st12{fill:#EA9256;} .st13{fill:#5BB1E4;} </style> <g id="Capa_2"> <path d="M2778,1653.6l11.6-20.9L762.5,1455.5L78.8,1802.9c-89.2,207.2-5.4,300.4-5.4,300.4l2048.1,161.1l661.8-379.1 C2783.2,1885.3,2716.1,1861.5,2778,1653.6z"/> <polygon class="st0" points="2158.5,1966.4 115,1805.7 766.2,1466.3 2752.1,1639.4 "/> <path class="st1" d="M2766.7,1652.7c0,0-45.9,177.9-7.2,228.8l-334.1,187.6l-285.3,160.2c0,0-46.7-217.9,35.8-252.5L2766.7,1652.7z "/> <path class="st2" d="M93.6,2077.6l2029.9,159.6c-43.2-204,13.7-255.8,13.7-255.8L103,1820.9C103,1820.9,12.3,1952.6,93.6,2077.6z"/> </g> <g id="Capa_3"> <path d="M2693.5,1385.6l58.6-31.5L855.9,1205l-623.4,293.5c-81.4,188.9-4.9,297-4.9,297l1867.2,146.9l603.3-345.6 C2698.2,1596.8,2637,1575.2,2693.5,1385.6z"/> <polygon class="st3" points="2128.7,1653.4 265.6,1501.2 859.3,1214.9 2686.1,1367.8 "/> <path class="st1" d="M2683.1,1384.8c0,0-1.2,4.8-3.1,13c-0.3,1.4-534.5,317-534.9,318.5c-0.6,2.8,533.3-311.6,532.5-308.2 c-3.4,16-8.6,48.1-11.5,71.1c-0.4,2.8-538.9,278.8-539.2,281.7c-0.4,3.1,537.9-274.1,537.6-271c-3,30.5-3.4,61.6,2.9,83.8 c0.6,2,1.2,3.9,1.9,5.8c0.7,1.8-334.8,167.4-334,169c1.3,2.9,277.4-138.2,334-163.1c6.4-2.8,5.2,5.1,5.4,5.4l-562.7,319.7 c0,0-42.5-216,32.7-247.5L2683.1,1384.8z"/> <path class="st4" d="M246.1,1772.1l1850.7,145.5c-39.4-186,11.8-249.9,11.8-249.9l-1847-152.1 C261.6,1515.6,171.9,1658.2,246.1,1772.1z"/> </g> <g id="Capa_4"> <path d="M2582.2,1094.4l58.6-31.5L744.7,913.8l-629.2,305.1c-81.4,188.9,0.9,285.5,0.9,285.5l1867.2,146.8l603.3-345.6 C2586.9,1305.6,2525.7,1284,2582.2,1094.4z"/> <polygon class="st5" points="2017.4,1362.2 148.5,1221.5 748,923.7 2602.9,1069.5 "/> <path class="st1" d="M2571.9,1093.6c0,0-1.9,7.2-4.5,19.1c-0.3,1.2-386.5,250.7-386.8,251.9c-0.5,2.1,385.1-244,384.6-241.7 c-2.2,10.5-6.9,30.1-9.1,43.9c-0.4,2.4-530.6,307.7-531,310.1c-0.5,3,531.7-306.9,531.2-303.9c-2.2,16.1-4.4,36-5,52.3 c-0.1,1.9-522.4,294.4-522.4,296.2c0,2.3,522.2-286.2,522.2-284c0,11,0.6,21.5,2.1,31c0.3,2.1,2.9,5.2,1.1,6.2 c-239.8,126.8,0.5,2.2,0.7,3.3c2.2,9.6,5.6,17.9,10.3,24.1l-564.6,317.2c0,0-42.6-216,32.7-247.5L2571.9,1093.6z"/> <path class="st6" d="M134.8,1480.9l1850.7,145.5c-39.4-186,4.8-244.1,4.8-244.1L137.6,1241.7C137.6,1241.7,60.7,1367,134.8,1480.9z "/> </g> <g id="Capa_9"> <path d="M2751,802l53.7-28.8L1067.8,636.6l-571,261.1c-74.5,173.1-4.5,279.8-4.5,279.8l1710.3,134.5l552.6-316.6 C2755.3,995.5,2699.2,975.7,2751,802z"/> <polygon class="st7" points="2233.6,1063.3 527.1,900.1 1070.9,645.6 2769.9,779.3 "/> <path class="st1" d="M2718.7,813.2c0,0-1.6,6.4-3.9,16.8c-0.3,1.4,0.4,3.5-0.9,4.3c-232.1,141.4-0.6,2.7-0.9,4.1 c-1.5,7.2-3.1,15.6-4.7,24.7c-0.3,1.9-452.4,281.3-452.8,283.2c-0.3,1.9,454.2-281.6,453.9-279.7c-1.6,10.7-5.5,36.4-6.5,47.7 c-0.2,2-456.6,258.2-456.8,260.2c-0.1,1.7,455.5-257.4,455.4-255.7c-1.2,19.1-0.7,37.5,2.6,52.3c0.3,1.6,2.5,3.8,1.2,4.6 c-430.9,250.8,0.6,2.2,1,3.3c1.8,5.3,4,9.8,6.8,13.6l-485.7,272.8c0,0-36.6-170.9,28.1-198L2718.7,813.2z"/> <path class="st8" d="M509.2,1156.1l1695.2,133.3c-36.1-170.3,17.3-219.4,17.3-219.4L517,906.9C517,906.9,441.3,1051.7,509.2,1156.1 z"/> <path d="M2751,802l53.7-28.8L1067.8,636.6l-571,261.1c-74.5,173.1-4.5,279.8-4.5,279.8l1710.3,134.5l552.6-316.6 C2755.3,995.5,2699.2,975.7,2751,802z"/> <polygon class="st7" points="2233.6,1034.3 527.1,900.1 1070.9,645.6 2769.9,779.3 "/> <path class="st1" d="M2741.5,801.3c0,0-1.8,6.8-4.2,17.9c-0.3,1.4,0.4,3.7-1,4.5c-247.1,150.6-0.6,2.9-0.9,4.4 c-1.6,7.7-3.3,16.6-5,26.3c-0.3,2-481.8,299.5-482.1,301.6c-0.3,2,483.6-299.9,483.3-297.8c-1.8,11.4-5.9,38.7-6.9,50.8 c-0.2,2.1-486.2,275-486.4,277.1c-0.1,1.8,485-274.1,484.9-272.2c-1.2,20.3-0.8,40,2.7,55.7c0.4,1.7,2.6,4,1.2,4.9 c-458.8,267.1,0.7,2.4,1.1,3.5c1.9,5.6,4.3,10.5,7.3,14.4l-517.2,290.5c0,0-39-210.9,29.9-239.7L2741.5,801.3z"/> <path class="st8" d="M509.2,1156.1l1695.2,133.3c-36.1-170.3,12.4-239.7,12.4-239.7l-1707.5-126 C509.4,923.7,441.3,1051.7,509.2,1156.1z"/> </g> <g id="Capa_10"> <path d="M2649,529.5l47.9-28.8l-1731-125L394.9,631c-74.5,173.1-4.5,279.8-4.5,279.8l1710.3,134.5l552.6-316.6 C2653.4,728.7,2597.3,703.1,2649,529.5z"/> <polygon class="st9" points="2131.7,796.5 425.2,633.3 969,384.7 2662.2,506.7 "/> <path class="st1" d="M2639.6,534.5c0,0-2,7.5-4.6,19.7c-0.5,2.1-375.1,211.3-375.6,213.6c-0.4,2.1,377.7-213,377.2-210.7 c-1.2,6.2-6.8,23.3-8.1,30.6c-0.4,2.6-515.4,297.6-515.9,300.2c-0.4,2.7,513.4-296.2,513-293.5c-5,33.4-7.7,81.4-1.7,108.4 c0.7,3.1,5,7.4,2.4,8.7c-627.7,333.3,1,2.7,1.5,4c1.6,3.8,3.4,7.1,5.6,10l-517.2,290.5c0,0-39-182,29.9-210.8L2639.6,534.5z"/> <path d="M2649,529.5l47.9-28.8l-1731-125L394.9,631c-74.5,173.1-4.5,279.8-4.5,279.8l1710.3,134.5l552.6-316.6 C2653.4,728.7,2597.3,703.1,2649,529.5z"/> <polygon class="st9" points="2131.7,750.2 425.2,633.3 969,384.7 2662.2,506.7 "/> <path class="st1" d="M2639.6,534.5c0,0-2,7.5-4.6,19.7c-0.5,2.1-375.1,211.3-375.6,213.6c-0.4,2.1,377.7-213,377.2-210.7 c-1.2,6.2-6.8,23.3-8.1,30.6c-0.4,2.6-515.4,297.6-515.9,300.2c-0.4,2.7,513.4-296.2,513-293.5c-5,33.4-7.7,81.4-1.7,108.4 c0.7,3.1,5,7.4,2.4,8.7c-627.7,333.3,1,2.7,1.5,4c1.6,3.8,3.4,7.1,5.6,10l-517.2,290.5c0,0-39-228.3,29.9-257.1L2639.6,534.5z"/> <path class="st10" d="M407.3,889.3l1695.2,133.3c-36.1-170.3,9.5-248.1,9.5-248.1L408.1,647.2C408.1,647.2,339.4,785,407.3,889.3z"/> </g> <g id="Capa_5"> <path d="M2536.8,368.5l48.3-22.9L1277.6,193.5L632.4,339.3c-53.3,93.7-23.2,245.8-23.2,245.8l1437.1,217L2537.8,525 C2537.8,525,2483.8,518.6,2536.8,368.5z"/> <polygon class="st11" points="2079.5,549 661,337.4 1279.9,201.5 2554.4,349.4 "/> <path class="st1" d="M2528.6,367.5c0,0,19.1-6.1-2.4,10.4c-38,29.1-139.6,74.9-141.6,83c-0.2,1,138.6-73.1,138.4-72.1 c-0.5,2.1-1,4.4-1.6,6.7c-0.4,1.7-0.8,3.3-1.1,5.1c-0.3,1.6-0.7,3.2-1.1,4.9c-0.5,2.2-0.9,4.6-1.4,6.9 c-0.6,3.1-429.2,227.9-429.8,231.2c-0.3,1.6,427.4-218.4,427.1-216.7c-0.5,3.3-1.1,6.8-1.6,10.2c-3,21.1-4.3,43.5-1.3,61.4 c0.5,3.1-393.3,213.3-392.5,216.1c0.6,2.2,393.2-210.5,394-208.5c1.2,2.8,5.2,13,6.7,15.3l-464.2,260.1c0,0-26.2-201.9,35.6-224.2 L2528.6,367.5z"/> <path class="st12" d="M620,571.3l1423.9,215.3c-35.6-167.6,17.8-225.3,17.8-225.3l-1417.8-213C643.9,348.3,587,433.1,620,571.3z"/> </g> <g> <path d="M2510,155.5l29.9-13.9L1519,40.2l-640.7,76c-58.1,120.1-19.9,247.3-19.9,247.3l1166,180.8l479.8-231 C2504.1,313.4,2482.8,272.8,2510,155.5z"/> <polygon class="st13" points="2066.9,272.2 936,119.2 1521,54.1 2499.5,144.9 "/> <path class="st1" d="M2502.9,160.4c0,0-1.2,10.1-2.9,17.3c-0.8,3.3-422.4,173.7-423.3,178.1c-0.6,2.7,426.8-173.2,426.2-170.2 c-0.7,3.3-11,28.2-11.7,31.8c-0.4,2.4-422.1,174-422.5,176.5c-0.7,4.3,422.3-169.7,421.7-165.2c-0.5,3.7-0.9,7.5-1.3,11.2 c-0.9,9.1,6.7,23.3-1.1,26.7c-854.5,367.4,0.1,3.5,0.2,5.2c0.1,2.4,0.3,4.8,0.6,7.1c1.2,10.1,3.6,18.8,7.8,25L2033,526.7 c0,0-22.4-221.2,30.5-240.3L2502.9,160.4z"/> <path class="st13" d="M867.7,351.7l1154.7,179.4c-20.7-129.5,21.3-247.3,21.3-247.3L893.1,123.9 C893.1,123.9,837.6,232.5,867.7,351.7z"/> </g> </svg>